#!OML:ASF E:\I on waltz\AllaLogoMonkeySwing\Project 1\Capture day 1\Session 1\Subject1.ASF
:FULLY-SPECIFIED
:DEGREES
577
root 1.55366 6.67064 -1.78793 -33.3972 -4.16775 -0.359192
lowerback 35.8744 1.9346 -1.00332
upperback 11.7945 2.16741 1.5662
thorax -4.95022 0.964798 1.41644
lowerneck -16.2176 2.48681 0.8415
upperneck 2.40909 3.3346 -2.71806
head 3.76486 1.52189 -0.788371
rclavicle 9.81499e-015 -1.98785e-015
rhumerus -29.2943 15.379 -91.9995
rradius 101.092
rwrist 24.9141
rhand -28.2322 -32.6019
rfingers 7.12502
rthumb -1.61014 -62.5756
lclavicle 9.81499e-015 -1.98785e-015
lhumerus -35.5622 -13.7227 99.4749
lradius 105.466
lwrist -12.6295
lhand -24.1983 -43.7118
lfingers 7.12502
lthumb 2.28586 -13.7443
rfemur -80.8236 -20.2389 27.3955
rtibia 133.245
rfoot -20.1972 1.05277
rtoes 30.1249
lfemur -79.9784 35.1281 -19.4899
ltibia 133.707
lfoot -28.4695 -17.4111
ltoes -3.22116
578
root 1.55136 6.67036 -1.78871 -33.4341 -4.24262 -0.421063
lowerback 35.8872 1.95094 -0.954441
upperback 11.8206 2.20733 1.61155
thorax -4.92796 0.983451 1.42474
lowerneck -16.2101 2.47648 0.787693
upperneck 2.4641 3.32803 -2.65238
head 3.78011 1.52086 -0.757004
rclavicle 1.76421e-015 2.98177e-015
rhumerus -29.3197 15.3689 -91.9782
rradius 101.098
rwrist 25.0244
rhand -28.2687 -32.5343
rfingers 7.12502
rthumb -1.64542 -62.5077
lclavicle 1.76421e-015 2.98177e-015
lhumerus -35.5788 -13.7375 99.5274
lradius 105.463
lwrist -12.6644
lhand -24.2261 -43.8208
lfingers 7.12502
lthumb 2.25898 -13.853
rfemur -80.7607 -20.14 27.5013
rtibia 133.223
rfoot -20.1788 0.998313
rtoes 30.2954
lfemur -79.9478 35.2834 -19.3479
ltibia 133.716
lfoot -28.5212 -17.4955
ltoes -3.19566
579
root 1.55063 6.66892 -1.78916 -33.4683 -4.31832 -0.524046
lowerback 35.9307 1.93231 -0.817553
upperback 11.8339 2.23232 1.64161
thorax -4.92653 0.997444 1.37544
lowerneck -16.225 2.44548 0.750823
upperneck 2.52687 3.29194 -2.60264
head 3.80286 1.5044 -0.736355
rclavicle -8.44835e-015 -3.37934e-015
rhumerus -29.3477 15.3184 -91.9889
rradius 101.136
rwrist 25.0819
rhand -28.2928 -32.5338
rfingers 7.12502
rthumb -1.66874 -62.507
lclavicle -8.44835e-015 -3.37934e-015
lhumerus -35.5785 -13.7851 99.5449
lradius 105.459
lwrist -12.6574
lhand -24.2434 -43.9629
lfingers 7.12502
lthumb 2.24232 -13.9949
rfemur -80.6919 -20.045 27.6317
rtibia 133.204
rfoot -20.1828 0.931588
rtoes 30.1274
lfemur -79.9509 35.4096 -19.1791
ltibia 133.745
lfoot -28.5598 -17.5805
ltoes -3.20372
580
root 1.5515 6.66845 -1.78966 -33.4577 -4.33087 -0.54938
lowerback 35.9255 1.91317 -0.764343
upperback 11.8365 2.2268 1.64509
thorax -4.9202 0.995853 1.35337
lowerneck -16.2439 2.42313 0.744092
upperneck 2.60175 3.26508 -2.59888
head 3.83282 1.49041 -0.735826
rclavicle -4.39811e-015 -1.39149e-015
rhumerus -29.3725 15.3143 -92.0131
rradius 101.197
rwrist 25.0384
rhand -28.2446 -32.5577
rfingers 7.12502
rthumb -1.62213 -62.5313
lclavicle -4.39811e-015 -1.39149e-015
lhumerus -35.594 -13.8266 99.5575
lradius 105.479
lwrist -12.6103
lhand -24.3122 -43.967
lfingers 7.12502
lthumb 2.17582 -13.9984
rfemur -80.6983 -20.0203 27.6581
rtibia 133.2
rfoot -20.1841 0.896982
rtoes 29.9794
lfemur -79.9789 35.4002 -19.1601
ltibia 133.749
lfoot -28.5455 -17.5845
ltoes -3.20466
581
root 1.55241 6.66867 -1.7901 -33.4604 -4.31654 -0.526498
lowerback 35.9088 1.91088 -0.785343
upperback 11.8434 2.21707 1.64851
thorax -4.90746 0.990536 1.37178
lowerneck -16.1952 2.40649 0.818879
upperneck 2.64991 3.2383 -2.71449
head 3.84473 1.47224 -0.791041
rclavicle -2.87989e-014 2.18663e-015
rhumerus -29.4263 15.3481 -92.0522
rradius 101.247
rwrist 24.9871
rhand -28.2184 -32.6154
rfingers 7.12502
rthumb -1.59684 -62.5892
lclavicle -2.87989e-014 2.18663e-015
lhumerus -35.6408 -13.8524 99.5826
lradius 105.509
lwrist -12.6193
lhand -24.3801 -43.8396
lfingers 7.12502
lthumb 2.11024 -13.8703
rfemur -80.6863 -20.0396 27.6146
rtibia 133.203
rfoot -20.1869 0.909001
rtoes 30.0084
lfemur -79.9427 35.3413 -19.1834
ltibia 133.721
lfoot -28.5168 -17.5553
ltoes -3.12757
582
root 1.5577 6.66862 -1.79201 -33.3675 -4.05317 -0.165771
lowerback 35.7225 1.95585 -1.14188
upperback 11.9072 2.14716 1.54102
thorax -4.91136 0.953538 1.466
lowerneck -16.0635 2.41246 0.972722
upperneck 2.64159 3.2307 -2.90441
head 3.82404 1.46212 -0.884848
rclavicle -1.51573e-015 6.16232e-015
rhumerus -29.4718 15.3853 -92.0989
rradius 101.279
rwrist 24.9734
rhand -28.2271 -32.6823
rfingers 7.12502
rthumb -1.60528 -62.656
lclavicle -1.51573e-015 6.16232e-015
lhumerus -35.6821 -13.8794 99.5903
lradius 105.529
lwrist -12.631
lhand -24.3689 -43.7812
lfingers 7.12502
lthumb 2.12107 -13.812
rfemur -80.9399 -20.326 27.1158
rtibia 133.271
rfoot -20.1495 1.19795
rtoes 30.0726
lfemur -79.9829 34.7244 -19.7876
ltibia 133.644
lfoot -28.3272 -17.1741
ltoes -2.93167
583
root 1.56658 6.66877 -1.7952 -33.1675 -3.5963 0.473367
lowerback 35.5469 2.03485 -1.77037
upperback 11.8451 2.02342 1.33724
thorax -4.92135 0.887601 1.62881
lowerneck -15.933 2.44831 1.07236
upperneck 2.61881 3.26662 -3.00629
head 3.79598 1.47746 -0.935324
rclavicle -7.7526e-015 7.35503e-015
rhumerus -29.4786 15.4078 -92.1232
rradius 101.284
rwrist 25.0253
rhand -28.2589 -32.72
rfingers 7.12502
rthumb -1.63596 -62.6935
lclavicle -7.7526e-015 7.35503e-015
lhumerus -35.7015 -13.8961 99.5883
lradius 105.543
lwrist -12.61
lhand -24.2729 -43.745
lfingers 7.12502
lthumb 2.21384 -13.7767
rfemur -81.4458 -20.8033 26.2679
rtibia 133.387
rfoot -20.0852 1.63868
rtoes 30.0617
lfemur -80.12 33.6888 -20.8679
ltibia 133.535
lfoot -28.0174 -16.539
ltoes -2.92832
584
root 1.57055 6.66872 -1.79612 -33.0839 -3.46169 0.704191
lowerback 35.4509 2.0668 -1.99472
upperback 11.8215 1.98574 1.27403
thorax -4.91478 0.8669 1.6953
lowerneck -15.8302 2.46905 1.11591
upperneck 2.63213 3.28856 -3.03148
head 3.78278 1.48847 -0.950658
rclavicle 1.53561e-014 -3.57812e-015
rhumerus -29.4748 15.4275 -92.1143
rradius 101.257
rwrist 25.1049
rhand -28.2715 -32.6688
rfingers 7.12502
rthumb -1.64809 -62.6422
lclavicle 1.53561e-014 -3.57812e-015
lhumerus -35.7236 -13.8994 99.5952
lradius 105.544
lwrist -12.6019
lhand -24.173 -43.6557
lfingers 7.12502
lthumb 2.31033 -13.6885
rfemur -81.6254 -20.9068 25.9782
rtibia 133.431
rfoot -20.0716 1.75577
rtoes 30.0204
lfemur -80.1921 33.367 -21.2414
ltibia 133.501
lfoot -27.9177 -16.3322
ltoes -3.24163
585
root 1.57088 6.66861 -1.79629 -33.058 -3.51905 0.693711
lowerback 35.3949 2.08339 -1.96811
upperback 11.8121 2.0172 1.2804
thorax -4.90665 0.882769 1.6779
lowerneck -15.7324 2.46252 1.20242
upperneck 2.67634 3.2679 -3.06973
head 3.78207 1.47808 -0.981704
rclavicle 1.41634e-015 -9.14409e-015
rhumerus -29.4834 15.4326 -92.1238
rradius 101.227
rwrist 25.1585
rhand -28.2062 -32.6294
rfingers 7.12502
rthumb -1.58504 -62.6033
lclavicle 1.41634e-015 -9.14409e-015
lhumerus -35.752 -13.9549 99.5947
lradius 105.519
lwrist -12.5847
lhand -24.1392 -43.5925
lfingers 7.12502
lthumb 2.34291 -13.6257
rfemur -81.6552 -20.7676 26.0341
rtibia 133.425
rfoot -20.0541 1.7103
rtoes 30.0555
lfemur -80.2583 33.4525 -21.2182
ltibia 133.506
lfoot -27.9099 -16.3678
ltoes -3.27544
586
root 1.57096 6.66844 -1.79736 -33.0346 -3.48843 0.77563
lowerback 35.3561 2.11253 -2.04006
upperback 11.7997 2.02869 1.25183
thorax -4.90757 0.888048 1.6824
lowerneck -15.6197 2.46756 1.26587
upperneck 2.70123 3.265 -3.08407
head 3.77072 1.47769 -0.999106
rclavicle 1.27222e-014 9.93923e-016
rhumerus -29.47 15.4309 -92.1484
rradius 101.193
rwrist 25.1758
rhand -28.1479 -32.6922
rfingers 7.12502
rthumb -1.52871 -62.6665
lclavicle 1.27222e-014 9.93923e-016
lhumerus -35.7631 -14.0415 99.5788
lradius 105.494
lwrist -12.5494
lhand -24.1713 -43.6037
lfingers 7.12502
lthumb 2.31194 -13.6365
rfemur -81.7462 -20.7473 25.9611
rtibia 133.432
rfoot -20.0066 1.73411
rtoes 30.0428
lfemur -80.2938 33.3924 -21.34
ltibia 133.489
lfoot -27.8409 -16.3315
ltoes -2.87199
587
root 1.57075 6.66854 -1.79785 -33.057 -3.45812 0.810789
lowerback 35.3644 2.11931 -2.06952
upperback 11.8031 2.02731 1.25109
thorax -4.90733 0.88682 1.69748
lowerneck -15.5595 2.47937 1.17939
upperneck 2.76805 3.29196 -2.98471
head 3.77885 1.49477 -0.948053
rclavicle -2.28602e-015 1.59028e-015
rhumerus -29.4577 15.4429 -92.1366
rradius 101.195
rwrist 25.1438
rhand -28.1192 -32.7178
rfingers 7.12502
rthumb -1.50099 -62.6923
lclavicle -2.28602e-015 1.59028e-015
lhumerus -35.7699 -14.1018 99.5806
lradius 105.481
lwrist -12.5349
lhand -24.2471 -43.6337
lfingers 7.12502
lthumb 2.23873 -13.6657
rfemur -81.738 -20.7812 25.9054
rtibia 133.436
rfoot -20.0029 1.74175
rtoes 29.9111
lfemur -80.2471 33.366 -21.3759
ltibia 133.478
lfoot -27.8546 -16.3034
ltoes -2.74132
588
root 1.57087 6.66907 -1.79774 -33.0669 -3.46827 0.785536
lowerback 35.3558 2.11197 -2.02885
upperback 11.7987 2.03404 1.27488
thorax -4.90955 0.89047 1.69872
lowerneck -15.5688 2.45849 1.13001
upperneck 2.91864 3.27563 -2.95939
head 3.83255 1.48589 -0.931764
rclavicle 2.2239e-014 -9.14409e-015
rhumerus -29.5062 15.4309 -92.1216
rradius 101.252
rwrist 25.107
rhand -28.1211 -32.6447
rfingers 7.12502
rthumb -1.50283 -62.6191
lclavicle 2.2239e-014 -9.14409e-015
lhumerus -35.8059 -14.144 99.6041
lradius 105.475
lwrist -12.5307
lhand -24.2713 -43.6287
lfingers 7.12502
lthumb 2.21537 -13.6604
rfemur -81.6944 -20.7765 25.9197
rtibia 133.427
rfoot -20.032 1.72349
rtoes 29.7933
lfemur -80.2265 33.3738 -21.3371
ltibia 133.477
lfoot -27.8897 -16.2885
ltoes -3.00573
589
root 1.57088 6.66894 -1.79786 -33.0718 -3.49426 0.753237
lowerback 35.3276 2.11517 -1.98553
upperback 11.7941 2.05552 1.30039
thorax -4.90577 0.901329 1.69561
lowerneck -15.5777 2.41787 1.17486
upperneck 3.06807 3.22237 -3.02922
head 3.88975 1.45535 -0.967898
rclavicle -1.67228e-014 2.78299e-015
rhumerus -29.5535 15.3815 -92.1123
rradius 101.283
rwrist 25.1521
rhand -28.1258 -32.597
rfingers 7.12502
rthumb -1.50741 -62.5714
lclavicle -1.67228e-014 2.78299e-015
lhumerus -35.8438 -14.1819 99.6348
lradius 105.481
lwrist -12.5108
lhand -24.2273 -43.6097
lfingers 7.12502
lthumb 2.2578 -13.6419
rfemur -81.6495 -20.7425 25.9475
rtibia 133.418
rfoot -20.0486 1.72898
rtoes 29.921
lfemur -80.2344 33.405 -21.2879
ltibia 133.478
lfoot -27.8771 -16.3207
ltoes -3.15424
590
root 1.57062 6.66833 -1.79847 -33.0827 -3.50894 0.738026
lowerback 35.3005 2.1202 -1.9691
upperback 11.8005 2.06931 1.31626
thorax -4.89033 0.9079 1.69939
lowerneck -15.5694 2.39669 1.11329
upperneck 3.16805 3.20268 -2.95202
head 3.92025 1.44785 -0.932266
rclavicle 9.64106e-015 -1.98785e-016
rhumerus -29.5645 15.3507 -92.1039
rradius 101.294
rwrist 25.1979
rhand -28.101 -32.658
rfingers 7.12502
rthumb -1.48345 -62.6326
lclavicle 9.64106e-015 -1.98785e-016
lhumerus -35.8573 -14.2148 99.6515
lradius 105.48
lwrist -12.4763
lhand -24.2192 -43.6178
lfingers 7.12502
lthumb 2.26563 -13.6501
rfemur -81.6327 -20.7096 25.9684
rtibia 133.413
rfoot -20.0419 1.73178
rtoes 30.0862
lfemur -80.2397 33.4437 -21.255
ltibia 133.48
lfoot -27.8871 -16.3731
ltoes -3.0989
